<svg width="29" height="30" viewBox="0 0 29 30" fill="none" xmlns="http://www.w3.org/2000/svg">
<g id="calendar-frame">
<path id="calendar" d="M6.34375 0C6.84426 0 7.25 0.419733 7.25 0.9375V1.875H21.75V0.9375C21.75 0.419733 22.1557 0 22.6562 0C23.1568 0 23.5625 0.419733 23.5625 0.9375V1.875H25.375C27.377 1.875 29 3.55393 29 5.625V26.25C29 28.3211 27.377 30 25.375 30H3.625C1.62297 30 0 28.3211 0 26.25V5.625C0 3.55393 1.62297 1.875 3.625 1.875H5.4375V0.9375C5.4375 0.419733 5.84324 0 6.34375 0ZM1.8125 7.5V26.25C1.8125 27.2855 2.62398 28.125 3.625 28.125H25.375C26.376 28.125 27.1875 27.2855 27.1875 26.25V7.5H1.8125Z" fill="black"/>
</g>
</svg>
