<svg width="27" height="27" viewBox="0 0 27 27" fill="none" xmlns="http://www.w3.org/2000/svg">
<g id="chevron-double-right">
<path id="Path (Stroke)" fill-rule="evenodd" clip-rule="evenodd" d="M6.37078 2.94951C6.68936 2.63092 7.20589 2.63092 7.52448 2.94951L17.3139 12.739C17.6325 13.0576 17.6325 13.5741 17.3139 13.8927L7.52448 23.6822C7.20589 24.0007 6.68936 24.0007 6.37078 23.6822C6.05219 23.3636 6.05219 22.847 6.37078 22.5285L15.5834 13.3158L6.37078 4.10321C6.05219 3.78463 6.05219 3.2681 6.37078 2.94951Z" fill="#42D09F"/>
<path id="Path (Stroke)_2" fill-rule="evenodd" clip-rule="evenodd" d="M12.8971 2.94951C13.2157 2.63092 13.7323 2.63092 14.0508 2.94951L23.8403 12.739C24.1589 13.0576 24.1589 13.5741 23.8403 13.8927L14.0508 23.6822C13.7323 24.0007 13.2157 24.0007 12.8971 23.6822C12.5786 23.3636 12.5786 22.847 12.8971 22.5285L22.1098 13.3158L12.8971 4.10321C12.5786 3.78463 12.5786 3.2681 12.8971 2.94951Z" fill="#42D09F"/>
</g>
</svg>
