<svg width="27" height="27" viewBox="0 0 27 27" fill="none" xmlns="http://www.w3.org/2000/svg">
<g id="gear">
<g id="Union">
<path d="M13.5001 8.02273C10.4751 8.02273 8.02283 10.475 8.02283 13.5C8.02283 16.5249 10.4751 18.9772 13.5001 18.9772C16.525 18.9772 18.9773 16.5249 18.9773 13.5C18.9773 10.475 16.525 8.02273 13.5001 8.02273ZM9.71033 13.5C9.71033 11.4069 11.4071 9.71023 13.5001 9.71023C15.5931 9.71023 17.2898 11.4069 17.2898 13.5C17.2898 15.593 15.5931 17.2897 13.5001 17.2897C11.4071 17.2897 9.71033 15.593 9.71033 13.5Z" fill="white"/>
<path d="M16.5315 2.26695C15.6406 -0.75565 11.3594 -0.755648 10.4685 2.26695L10.3101 2.80428C10.0448 3.70439 9.01667 4.13024 8.19259 3.68137L7.70066 3.41341C4.9334 1.90607 1.90608 4.93341 3.41341 7.70066L3.68137 8.19259C4.13024 9.01667 3.70439 10.0448 2.80427 10.3101L2.26695 10.4685C-0.75565 11.3594 -0.755648 15.6406 2.26695 16.5315L2.80427 16.6899C3.70439 16.9552 4.13024 17.9833 3.68137 18.8074L3.41341 19.2993C1.90608 22.0666 4.93339 25.0939 7.70066 23.5866L8.19259 23.3186C9.01667 22.8698 10.0448 23.2956 10.3101 24.1957L10.4685 24.7331C11.3594 27.7556 15.6406 27.7556 16.5315 24.7331L16.6899 24.1957C16.9552 23.2956 17.9833 22.8698 18.8074 23.3186L19.2993 23.5866C22.0666 25.0939 25.0939 22.0666 23.5866 19.2993L23.3186 18.8074C22.8698 17.9833 23.2956 16.9552 24.1957 16.6899L24.7331 16.5315C27.7556 15.6406 27.7556 11.3594 24.7331 10.4685L24.1957 10.3101C23.2956 10.0448 22.8698 9.01667 23.3186 8.19259L23.5866 7.70066C25.0939 4.93339 22.0666 1.90608 19.2993 3.41341L18.8074 3.68137C17.9833 4.13024 16.9552 3.70439 16.6899 2.80428L16.5315 2.26695ZM12.0871 2.74404C12.5023 1.33532 14.4977 1.33532 14.9129 2.74404L15.0713 3.28137C15.6405 5.21268 17.8464 6.12641 19.6146 5.16328L20.1065 4.89533C21.3963 4.19281 22.8072 5.60374 22.1047 6.89346L21.8367 7.38539C20.8736 9.15355 21.7873 11.3595 23.7186 11.9287L24.256 12.0871C25.6647 12.5023 25.6647 14.4977 24.256 14.9129L23.7186 15.0713C21.7873 15.6405 20.8736 17.8464 21.8367 19.6146L22.1047 20.1065C22.8072 21.3963 21.3963 22.8072 20.1065 22.1047L19.6146 21.8367C17.8465 20.8736 15.6405 21.7873 15.0713 23.7186L14.9129 24.256C14.4977 25.6647 12.5023 25.6647 12.0871 24.256L11.9287 23.7186C11.3595 21.7873 9.15355 20.8736 7.38539 21.8367L6.89346 22.1047C5.60374 22.8072 4.19281 21.3963 4.89533 20.1065L5.16328 19.6146C6.1264 17.8465 5.21268 15.6405 3.28137 15.0713L2.74404 14.9129C1.33532 14.4977 1.33532 12.5023 2.74404 12.0871L3.28137 11.9287C5.21268 11.3595 6.12641 9.15355 5.16328 7.38539L4.89533 6.89346C4.19281 5.60374 5.60374 4.19281 6.89346 4.89533L7.38539 5.16328C9.15355 6.1264 11.3595 5.21268 11.9287 3.28137L12.0871 2.74404Z" fill="white"/>
</g>
</g>
</svg>
