<svg xmlns="http://www.w3.org/2000/svg" width="30" height="30" viewBox="0 0 30 30" fill="none">
  <path d="M15.9375 11.25C15.9375 10.7322 15.5178 10.3125 15 10.3125C14.4822 10.3125 14.0625 10.7322 14.0625 11.25V14.0625H11.25C10.7322 14.0625 10.3125 14.4822 10.3125 15C10.3125 15.5178 10.7322 15.9375 11.25 15.9375H14.0625V18.75C14.0625 19.2678 14.4822 19.6875 15 19.6875C15.5178 19.6875 15.9375 19.2678 15.9375 18.75V15.9375H18.75C19.2678 15.9375 19.6875 15.5178 19.6875 15C19.6875 14.4822 19.2678 14.0625 18.75 14.0625H15.9375V11.25Z" fill="#72D49B"/>
  <path d="M3.75 3.75C3.75 1.67893 5.42893 0 7.5 0H22.5C24.5711 0 26.25 1.67893 26.25 3.75V26.25C26.25 28.3211 24.5711 30 22.5 30H7.5C5.42893 30 3.75 28.3211 3.75 26.25V3.75ZM22.5 1.875H7.5C6.46447 1.875 5.625 2.71447 5.625 3.75V26.25C5.625 27.2855 6.46447 28.125 7.5 28.125H22.5C23.5355 28.125 24.375 27.2855 24.375 26.25V3.75C24.375 2.71447 23.5355 1.875 22.5 1.875Z" fill="#72D49B"/>
</svg>