<svg width="81" height="81" viewBox="0 0 81 81" fill="none" xmlns="http://www.w3.org/2000/svg">
<g id="image-alt">
<g id="Union">
<path d="M35.4375 12.6562C35.4375 19.6461 29.7711 25.3125 22.7813 25.3125C15.7914 25.3125 10.125 19.6461 10.125 12.6562C10.125 5.6664 15.7914 0 22.7813 0C29.7711 0 35.4375 5.6664 35.4375 12.6562Z" fill="#D9D9D9"/>
<path d="M56.8273 33.1735C55.8528 32.6863 54.6759 32.8773 53.9054 33.6477L35.1228 57.4929L21.6619 43.4564C20.6579 42.7871 19.3211 42.9195 18.4679 43.7727L0.0078125 65.8126V75.9376C0.0078125 78.7335 2.27437 81.0001 5.07031 81.0001H75.9453C78.7413 81.0001 81.0078 78.7335 81.0078 75.9376V53.1563L56.8273 33.1735Z" fill="#D9D9D9"/>
</g>
</g>
</svg>
