<svg width="27" height="27" viewBox="0 0 27 27" fill="none" xmlns="http://www.w3.org/2000/svg">
<g id="trophy">
<path id="v2 (Stroke)" d="M4.21875 0.84375C4.21875 0.37776 4.59651 0 5.0625 0H21.9375C22.4035 0 22.7812 0.37776 22.7812 0.84375C22.7812 1.75082 22.7612 2.61413 22.723 3.43558C25.1459 3.81301 27 5.90873 27 8.4375C27 11.2334 24.7334 13.5 21.9375 13.5C21.5512 13.5 21.1745 13.4566 20.812 13.3743C19.4792 16.5219 17.6427 18.0608 16.0312 18.4569V22.1225L18.4365 22.7238C18.7638 22.8056 19.0715 22.952 19.3414 23.1545L22.4438 25.4813C22.7343 25.6992 22.8528 26.0785 22.738 26.4231C22.6231 26.7676 22.3007 27 21.9375 27H5.0625C4.69932 27 4.37689 26.7676 4.26205 26.4231C4.1472 26.0785 4.26571 25.6992 4.55625 25.4813L7.65863 23.1545C7.92853 22.952 8.23616 22.8056 8.56346 22.7238L10.9688 22.1225V18.4569C9.3573 18.0608 7.52081 16.5219 6.18797 13.3743C5.82554 13.4566 5.44875 13.5 5.0625 13.5C2.26656 13.5 0 11.2334 0 8.4375C0 5.90873 1.85408 3.81301 4.27699 3.43558C4.23879 2.61413 4.21875 1.75082 4.21875 0.84375ZM4.38581 5.13036C2.84614 5.44372 1.6875 6.8053 1.6875 8.4375C1.6875 10.3015 3.19854 11.8125 5.0625 11.8125C5.24558 11.8125 5.42492 11.798 5.59957 11.7701C5.03866 9.99906 4.60794 7.81225 4.38581 5.13036ZM21.4004 11.7701C21.5751 11.798 21.7544 11.8125 21.9375 11.8125C23.8015 11.8125 25.3125 10.3015 25.3125 8.4375C25.3125 6.8053 24.1539 5.44372 22.6142 5.13036C22.3921 7.81225 21.9613 9.99906 21.4004 11.7701ZM5.91232 1.6875C5.92502 2.55954 5.95737 3.38507 6.0072 4.16627C6.22546 7.58855 6.77835 10.1508 7.47532 12.0417C8.93397 15.999 10.9412 16.875 11.8125 16.875C12.2785 16.875 12.6562 17.2528 12.6562 17.7188V22.1225C12.6562 22.8968 12.1292 23.5718 11.378 23.7596L8.97274 24.3609C8.86364 24.3882 8.7611 24.437 8.67113 24.5045L7.59375 25.3125H19.4062L18.3289 24.5045C18.2389 24.437 18.1364 24.3882 18.0273 24.3609L15.622 23.7596C14.8708 23.5718 14.3438 22.8968 14.3438 22.1225V17.7188C14.3438 17.2528 14.7215 16.875 15.1875 16.875C16.0588 16.875 18.066 15.999 19.5247 12.0417C20.2217 10.1508 20.7745 7.58855 20.9928 4.16627C21.0426 3.38507 21.075 2.55954 21.0877 1.6875H5.91232Z" fill="white"/>
</g>
</svg>
